<svg xmlns="http://www.w3.org/2000/svg" xmlns:xlink="http://www.w3.org/1999/xlink" version="1.1" width="256" height="256" viewBox="0 0 256 256" xml:space="preserve">
<desc>Created with Fabric.js 1.7.22</desc>
<defs>
</defs>
<g transform="translate(128 128) scale(0.72 0.72)">
	<g class="jp-icon0 jp-icon-selectable" fill="#000000" style="" transform="translate(-175.05 -175.05000000000004) scale(3.89 3.89)" >
	<path class="jp-icon0 jp-icon-selectable" fill="#000000" d="M 45 81.392 c -0.552 0 -1 -0.447 -1 -1 V 69.605 c 0 -0.553 0.448 -1 1 -1 s 1 0.447 1 1 v 10.786 C 46 80.944 45.552 81.392 45 81.392 z" style="" transform=" matrix(1 0 0 1 0 0) " stroke-linecap="round" />
	<path class="jp-icon0 jp-icon-selectable" fill="#000000" d="M 40.696 85.696 H 3.873 c -0.552 0 -1 -0.447 -1 -1 s 0.448 -1 1 -1 h 36.823 c 0.552 0 1 0.447 1 1 S 41.248 85.696 40.696 85.696 z" style="" transform=" matrix(1 0 0 1 0 0) " stroke-linecap="round" />
	<path class="jp-icon0 jp-icon-selectable" fill="#000000" d="M 47.591 90 h -5.182 c -1.496 0 -2.713 -1.217 -2.713 -2.713 v -5.182 c 0 -1.496 1.217 -2.714 2.713 -2.714 h 5.182 c 1.496 0 2.713 1.218 2.713 2.714 v 5.182 C 50.304 88.783 49.087 90 47.591 90 z M 42.409 81.392 c -0.394 0 -0.713 0.32 -0.713 0.714 v 5.182 c 0 0.394 0.32 0.713 0.713 0.713 h 5.182 c 0.394 0 0.713 -0.319 0.713 -0.713 v -5.182 c 0 -0.394 -0.319 -0.714 -0.713 -0.714 H 42.409 z" style="" transform=" matrix(1 0 0 1 0 0) " stroke-linecap="round" />
	<path class="jp-icon0 jp-icon-selectable" fill="#000000" d="M 83.109 24.868 H 6.891 c -2.216 0 -4.019 -1.803 -4.019 -4.018 V 4.019 C 2.873 1.803 4.675 0 6.891 0 h 76.218 c 2.215 0 4.018 1.803 4.018 4.019 V 20.85 C 87.127 23.065 85.324 24.868 83.109 24.868 z M 6.891 2 C 5.778 2 4.873 2.906 4.873 4.019 V 20.85 c 0 1.113 0.905 2.018 2.019 2.018 h 76.218 c 1.112 0 2.018 -0.905 2.018 -2.018 V 4.019 C 85.127 2.906 84.222 2 83.109 2 H 6.891 z" style="" transform=" matrix(1 0 0 1 0 0) " stroke-linecap="round" />
	<path class="jp-icon0 jp-icon-selectable" fill="#000000" d="M 17.375 16.955 h -4.289 c -1.311 0 -2.376 -1.066 -2.376 -2.376 V 10.29 c 0 -1.311 1.066 -2.376 2.376 -2.376 h 4.289 c 1.311 0 2.376 1.066 2.376 2.376 v 4.289 C 19.752 15.889 18.686 16.955 17.375 16.955 z M 13.087 9.914 c -0.208 0 -0.376 0.169 -0.376 0.376 v 4.289 c 0 0.208 0.169 0.376 0.376 0.376 h 4.289 c 0.208 0 0.376 -0.168 0.376 -0.376 V 10.29 c 0 -0.208 -0.169 -0.376 -0.376 -0.376 H 13.087 z" style="" transform=" matrix(1 0 0 1 0 0) " stroke-linecap="round" />
	<path class="jp-icon0 jp-icon-selectable" fill="#000000" d="M 32.144 16.955 h -4.289 c -1.31 0 -2.376 -1.066 -2.376 -2.376 V 10.29 c 0 -1.311 1.066 -2.376 2.376 -2.376 h 4.289 c 1.311 0 2.376 1.066 2.376 2.376 v 4.289 C 34.52 15.889 33.454 16.955 32.144 16.955 z M 27.855 9.914 c -0.208 0 -0.376 0.169 -0.376 0.376 v 4.289 c 0 0.208 0.168 0.376 0.376 0.376 h 4.289 c 0.208 0 0.376 -0.168 0.376 -0.376 V 10.29 c 0 -0.208 -0.169 -0.376 -0.376 -0.376 H 27.855 z" style="" transform=" matrix(1 0 0 1 0 0) " stroke-linecap="round" />
	<path class="jp-icon0 jp-icon-selectable" fill="#000000" d="M 83.109 47.736 H 6.891 c -2.216 0 -4.019 -1.803 -4.019 -4.018 V 26.887 c 0 -2.216 1.803 -4.019 4.019 -4.019 h 76.218 c 2.215 0 4.018 1.803 4.018 4.019 v 16.832 C 87.127 45.934 85.324 47.736 83.109 47.736 z M 6.891 24.868 c -1.113 0 -2.019 0.906 -2.019 2.019 v 16.832 c 0 1.113 0.905 2.018 2.019 2.018 h 76.218 c 1.112 0 2.018 -0.905 2.018 -2.018 V 26.887 c 0 -1.113 -0.905 -2.019 -2.018 -2.019 H 6.891 z" style="" transform=" matrix(1 0 0 1 0 0) " stroke-linecap="round" />
	<path class="jp-icon0 jp-icon-selectable" fill="#000000" d="M 17.375 39.823 h -4.289 c -1.311 0 -2.376 -1.066 -2.376 -2.376 v -4.289 c 0 -1.311 1.066 -2.376 2.376 -2.376 h 4.289 c 1.311 0 2.376 1.066 2.376 2.376 v 4.289 C 19.752 38.757 18.686 39.823 17.375 39.823 z M 13.087 32.782 c -0.208 0 -0.376 0.169 -0.376 0.376 v 4.289 c 0 0.208 0.169 0.376 0.376 0.376 h 4.289 c 0.208 0 0.376 -0.169 0.376 -0.376 v -4.289 c 0 -0.208 -0.169 -0.376 -0.376 -0.376 H 13.087 z" style="" transform=" matrix(1 0 0 1 0 0) " stroke-linecap="round" />
	<path class="jp-icon0 jp-icon-selectable" fill="#000000" d="M 32.144 39.823 h -4.289 c -1.31 0 -2.376 -1.066 -2.376 -2.376 v -4.289 c 0 -1.311 1.066 -2.376 2.376 -2.376 h 4.289 c 1.311 0 2.376 1.066 2.376 2.376 v 4.289 C 34.52 38.757 33.454 39.823 32.144 39.823 z M 27.855 32.782 c -0.208 0 -0.376 0.169 -0.376 0.376 v 4.289 c 0 0.208 0.168 0.376 0.376 0.376 h 4.289 c 0.208 0 0.376 -0.169 0.376 -0.376 v -4.289 c 0 -0.208 -0.169 -0.376 -0.376 -0.376 H 27.855 z" style="" transform=" matrix(1 0 0 1 0 0) " stroke-linecap="round" />
	<path class="jp-icon0 jp-icon-selectable" fill="#000000" d="M 83.109 70.605 H 6.891 c -2.216 0 -4.019 -1.803 -4.019 -4.019 V 49.755 c 0 -2.216 1.803 -4.019 4.019 -4.019 h 76.218 c 2.215 0 4.018 1.803 4.018 4.019 v 16.832 C 87.127 68.803 85.324 70.605 83.109 70.605 z M 6.891 47.736 c -1.113 0 -2.019 0.905 -2.019 2.019 v 16.832 c 0 1.113 0.905 2.019 2.019 2.019 h 76.218 c 1.112 0 2.018 -0.905 2.018 -2.019 V 49.755 c 0 -1.113 -0.905 -2.019 -2.018 -2.019 H 6.891 z" style="" transform=" matrix(1 0 0 1 0 0) " stroke-linecap="round" />
	<path class="jp-icon0 jp-icon-selectable" fill="#000000" d="M 17.375 62.691 h -4.289 c -1.311 0 -2.376 -1.065 -2.376 -2.376 v -4.289 c 0 -1.311 1.066 -2.376 2.376 -2.376 h 4.289 c 1.311 0 2.376 1.065 2.376 2.376 v 4.289 C 19.752 61.626 18.686 62.691 17.375 62.691 z M 13.087 55.65 c -0.208 0 -0.376 0.169 -0.376 0.376 v 4.289 c 0 0.207 0.169 0.376 0.376 0.376 h 4.289 c 0.208 0 0.376 -0.169 0.376 -0.376 v -4.289 c 0 -0.207 -0.169 -0.376 -0.376 -0.376 H 13.087 z" style="" transform=" matrix(1 0 0 1 0 0) " stroke-linecap="round" />
	<path class="jp-icon0 jp-icon-selectable" fill="#000000" d="M 32.144 62.691 h -4.289 c -1.31 0 -2.376 -1.065 -2.376 -2.376 v -4.289 c 0 -1.311 1.066 -2.376 2.376 -2.376 h 4.289 c 1.311 0 2.376 1.065 2.376 2.376 v 4.289 C 34.52 61.626 33.454 62.691 32.144 62.691 z M 27.855 55.65 c -0.208 0 -0.376 0.169 -0.376 0.376 v 4.289 c 0 0.207 0.168 0.376 0.376 0.376 h 4.289 c 0.208 0 0.376 -0.169 0.376 -0.376 v -4.289 c 0 -0.207 -0.169 -0.376 -0.376 -0.376 H 27.855 z" style="" transform=" matrix(1 0 0 1 0 0) " stroke-linecap="round" />
	<path class="jp-icon0 jp-icon-selectable" fill="#000000" d="M 86.127 85.696 H 49.304 c -0.553 0 -1 -0.447 -1 -1 s 0.447 -1 1 -1 h 36.823 c 0.553 0 1 0.447 1 1 S 86.68 85.696 86.127 85.696 z" style="" transform=" matrix(1 0 0 1 0 0) " stroke-linecap="round" />
</g>
</g>
</svg>
