<?xml version="1.0" encoding="UTF-8" standalone="no"?>
<svg
   xmlns:dc="http://purl.org/dc/elements/1.1/"
   xmlns:cc="http://creativecommons.org/ns#"
   xmlns:rdf="http://www.w3.org/1999/02/22-rdf-syntax-ns#"
   xmlns:svg="http://www.w3.org/2000/svg"
   xmlns="http://www.w3.org/2000/svg"
   xmlns:sodipodi="http://sodipodi.sourceforge.net/DTD/sodipodi-0.dtd"
   xmlns:inkscape="http://www.inkscape.org/namespaces/inkscape"
   id="Layer_1"
   data-name="Layer 1"
   viewBox="0 0 614.24316 614.24316"
   version="1.1"
   sodipodi:docname="shiny.svg"
   width="614.24316"
   height="614.24316"
   inkscape:version="0.92.3 (2405546, 2018-03-11)">
  <metadata
     id="metadata49">
    <rdf:RDF>
      <cc:Work
         rdf:about="">
        <dc:format>image/svg+xml</dc:format>
        <dc:type
           rdf:resource="http://purl.org/dc/dcmitype/StillImage" />
        <dc:title></dc:title>
      </cc:Work>
    </rdf:RDF>
  </metadata>
  <sodipodi:namedview
     pagecolor="#ffffff"
     bordercolor="#666666"
     borderopacity="1"
     objecttolerance="10"
     gridtolerance="10"
     guidetolerance="10"
     inkscape:pageopacity="0"
     inkscape:pageshadow="2"
     inkscape:window-width="1732"
     inkscape:window-height="1161"
     id="namedview47"
     showgrid="false"
     fit-margin-top="0"
     fit-margin-left="0"
     fit-margin-right="0"
     fit-margin-bottom="0"
     inkscape:zoom="0.78346103"
     inkscape:cx="47.200846"
     inkscape:cy="265.56135"
     inkscape:window-x="0"
     inkscape:window-y="0"
     inkscape:window-maximized="0"
     inkscape:current-layer="Layer_1" />
  <defs
     id="defs14">
    <style
       id="style2">.cls-1{fill:none;}.cls-2{clip-path:url(#clip-path);}.cls-3{fill:#428bca;}.cls-4{opacity:0.25;fill:url(#linear-gradient);}.cls-5{fill:#3674a8;}.cls-6{fill:#e6b35a;}.cls-7{font-size:25px;font-family:MyriadPro-Regular, Myriad Pro;}.cls-13,.cls-7{fill:#fff;}.cls-8{letter-spacing:0.01em;}.cls-9{letter-spacing:-0.04em;}.cls-10{letter-spacing:-0.02em;}.cls-11{letter-spacing:-0.01em;}.cls-12{letter-spacing:0em;}.cls-13{opacity:0.9;}</style>
  </defs>
  <path
     class="cls-13"
     d="m 63.90077,382.02076 h -0.07 c -3.26,-0.06 -1.04,0 0.07,0 z m -0.07,0 h -0.65 1.68 -0.17 -0.79 c 0.57,0 0.85,0.06 -0.07,0 z m 0.86,0 c 34.939997,0.8 71.37999,-7.29 81.99999,-48.83 6.87,-26.81999 -10.33,-46.27999 -25.54,-65.92999 a 1.05,1.05 0 0 1 -0.21,-0.39 c -0.58,-2.49 -17.06,-17.66 -21.669993,-23.36 a 0.85,0.85 0 0 0 -0.17,-0.16 c -2.19,-1.59 -4.5,-9.68 -5.61,-14.16 a 13.13,13.13 0 0 1 -0.13,-5.69 c 4,-20.35 6.19,-35.33 33.259993,-30.85 19.45,3.22 9.39,31.75 19.85,34.61 h 0.24 c 6.3,0.61 18.58,-14.51 20.37,-19.59 7,-19.78 -33.38,-31.92 -45.68,-31.15 -24.659993,1.54 -40.899993,14.94 -50.79999,37 -18.25,40.72 15.839997,67.77 36.42999,95.71 15.57,21.12999 14.88,39.89999 -4.25,57.99999 -20.999993,19.91 -45.41999,-7.45 -48.19999,-26.75 -2.54,-17.69 -2.3,-29.99999 -17.079997,-7.54 -13.56,20.77 0.5,47.95 27.189997,49.08 z m 549.54999,-96.61999 a 1.17,1.17 0 0 1 0,0.15 47.31,47.31 0 0 1 -2.85,12.58 99.69,99.69 0 0 1 -9.91,19.47999 c -4.9,7.5 -7.49,10.5 -12.57,17.11 -9.57,12.46 -17,21.79 -28.21,33.68 -15.61,16.51 -33,35.42 -52,48.9 -27.15,19.38 -61.3,24.72 -93.72,27.72 -94.83,8.63 -234.29,21.42 -263.65,124 a 1.05,1.05 0 0 1 -1.92,0.24 c -28.78,-49.24 -90.64999,-85.31 -148.1299874,-83.61 a 1.0307764,1.0307764 0 0 1 -0.49999998,-2 c 147.82998738,-73.41 298.79998738,-38.21 458.36998738,-66.72 39.89,-7.13 73.38,-33.26 97.53,-64.75 9.15,-11.93 21,-22 29.08,-34.7 1.33,-2.08 8,-18.77999 -2.38,-11.72999 -16.12,10.90999 -29.69,24.38999 -47.21,32.91999 -0.76,0.37 -1.65,0.75 -2.62,1.14 a 1.07,1.07 0 0 0 -0.62,0.66 101.16,101.16 0 0 1 -10.51,23.36 67.43,67.43 0 0 1 -20.81,20.67 55.46,55.46 0 0 1 -26.24,8.93 c -1.29,0.08 -2.55,0.12 -3.79,0.12 -7.41,0 -12.17,-0.6 -17.86,-3.55 -7.32,-3.79 -9.59,-10 -10.06,-17.52 -0.28,-4.46 2.54,-9.41 4.82,-13.12 2.28,-3.71 6,-7.79 8.63,-8.93 l 0.18,-0.1 c 13,-9.65 35.12,-10.34 50.15,-14.35 a 1,1 0 0 0 0.74,-0.74 l 7.51,-27.43999 a 1.05,1.05 0 0 0 -1.88,-0.87 144.2,144.2 0 0 1 -12.55,15.86999 c -5.88,6.25 -10.46,10 -14,11.45 a 39.5,39.5 0 0 1 -12.4,2.59 c -5.05,0.32 -9.29,-1.68 -12.6,-5.94 -3.31,-4.26 -5.06,-10.39 -5.49,-18.6 -0.07,-1.33999 -0.09,-2.78999 -0.05,-4.34999 a 1.05,1.05 0 0 0 -2,-0.52 q -2.48,4.63999 -4.8,8.63999 a 107.55,107.55 0 0 1 -17.23,22.36 c -6.65,6.57 -13,10.09 -18.86,10.47 -11.05,0.71 -17.07,-5.64 -17.9,-18.79 -0.81,-12.6 4.25,-38.53999 15,-77.11999 a 13.64,13.64 0 0 0 0.67,-5.21 c -0.22,-3.48 -2.19,-4.9 -6.27,-4.65 a 22.68,22.68 0 0 0 -12.84,5.42 46.26,46.26 0 0 0 -11.16,14.07 199.43,199.43 0 0 0 -8.85,18.48 155.64,155.64 0 0 0 -6.93,21.36 c -2.05,8.06 -3.67,14.84999 -4.81,20.15999 -1.17,5.47 -2.31,11.29 -3.39,17.32 -0.76,4.2 -1.7,9.38 -1.88,10.19 l -0.18,0.77 -27.47,1.75 -0.07,-1 c -0.15,-2.39 1.75,-10.9 5.77,-25.79 -0.8,1.44 -1.59,2.84 -2.36,4.17 a 107.56,107.56 0 0 1 -17.2,22.36 c -6.64,6.57 -13,10.09 -18.86,10.47 -0.42,0 -0.83,0 -1.23,0 -9.74,0 -15.17,-7.62 -16.12,-22.64 q -0.29,-4.48 -0.22,-9.13 a 1.0332473,1.0332473 0 0 0 -2,-0.52 c -15.04,27.71 -28.62,41.65 -41.23,42.45 -11.06,0.72 -17.09,-5.93 -18,-19.66 -1,-15.29 3.25,-37.68 12.54,-66.53999 2,-7.1 2.87,-12 2.71,-14.6 -0.25,-4 -2.06,-4.51 -3.61,-4.51 h -0.39 c -1.32,0.08 -4.13,0.95 -10,4.58 a 52,52 0 0 0 -13.37,12.53 71.06,71.06 0 0 0 -10.19,18.54 c -2.62,7 -4.72,13.09999 -6.24,18.18999 -1.52,5.09 -3,11.37 -4.49,18.64 -1.49,7.27 -2.84,13.44 -4,18 -1.16,4.56 -2.4,9.93 -3.61,16 l -0.16,0.79 -26.44,1.68 a 1.05,1.05 0 0 1 -1.08,-1.34 v 0 c 3.89,-13.54 9.4,-35.42 16.4,-64.99999 7,-29.58 13.32,-53.3 18.54,-70.36 a 383.21,383.21 0 0 1 16,-43.55 118.21,118.21 0 0 1 19.2,-30.39 c 7.5,-8.39 15.85,-12.93 24.82,-13.51 9.39,-0.61 14.44,4 15.07,13.75 0.41,6.48 -1.47,15.25 -5.6,26.07 -7.53,19.33 -20.06,41.76 -37.3,66.84 a 1.036207,1.036207 0 0 0 1.5,1.43 64.62,64.62 0 0 1 9.61,-6.15 42.81,42.81 0 0 1 16.17,-4.6 c 10.71,-0.68 16.44,4.21 17.1,14.49 a 31.47,31.47 0 0 1 -1.21,11.19 q -1.53,5 -3.37,11.52 -1.84,6.52 -3,10.65 c -0.8,2.77 -1.84,6.5 -3.13,11.22 -1.29,4.71999 -2.27,8.74999 -2.93,11.99999 -1.75,8.13 -2.48,14.62 -2.18,19.33 0.38,6 2.78,6 3.57,6 h 0.27 c 10.08,-0.64 22,-18.2 35.51,-52.19999 0.06,-0.18 0.13,-0.31 0.2,-0.47 a 233.51,233.51 0 0 1 11.69,-32.81 c 5.58,-12.31 12.44,-18.79 20.4,-19.3 l 15.94,-0.77 a 1.05,1.05 0 0 1 0.77,1.82 h -0.05 c -2.54,2.37 -5.83,8.8 -9.77,19.12 -4.25,11.13 -7.09,18.69 -9,23.79 -1.94,5.29 -4.09,12.53 -6.42,21.52 -2.33,8.98999 -3.29,16.18999 -2.94,21.64999 0.45,7.1 3.23,7.1 4.14,7.1 h 0.3 c 1.4,-0.09 4,-1.1 8.67,-5.4 a 53.2,53.2 0 0 0 9.31,-11.13 c 2.35,-3.84 5,-8.81999 7.89,-14.78999 2.89,-5.97 5.39,-11.18 7.5,-15.58 2.25,-4.7 3.2,-6.32 3.8,-6.89 l 1.32,-2.41 c 4.93,-19.77 7.18,-33.72 6.69,-41.42 a 8.43,8.43 0 0 0 -0.91,-3.79 v 0 a 1.05,1.05 0 0 1 0.82,-1.61 l 11.1,-0.71 c 6.49,-0.41 10.59,0.05 12.67,1.44 a 7.62,7.62 0 0 1 3.46,6.14 37.29,37.29 0 0 1 -0.66,7.3 1.05,1.05 0 0 0 1.8,0.89 c 12.46,-13 25.53,-20 38.93,-20.81 10.73,-0.69 16.46,4.41 17.14,15.07 a 39.36,39.36 0 0 1 -0.71,10.2 c -0.68,3.39 -2.44,10 -5.37,20.17 -6.31,21.87 -9.28,36.59 -8.82,43.77999 0.33,5.08 2.3,5.66 3.76,5.66 h 0.32 c 1.39,-0.09 4,-1.12 8.65,-5.53 a 60.68,60.68 0 0 0 9.45,-11.25999 161,161 0 0 0 8,-14.65 c 2.86,-5.83 5.34,-11 7.36,-15.4 0.73,-1.59 1.32,-2.81 1.8,-3.78 a 1,1 0 0 0 0.08,-0.21 c 2.9,-12.22 6.31,-22.33 10.15,-30.07 4.55,-9.17 9.6,-15.32 15,-18.26 5.4,-2.94 12.84,-4.7 22.29,-5.31 v 0 a 2.13,2.13 0 0 1 2.33,2.15 c 0.07,1.07 -0.47,2.31 -1.65,3.77 -6.69,7.31 -13.23,20.2 -19.49,38.39 -6.26,18.19 -9,33.55 -8.27,45.69 0.36,5.61999 1.78,8.46999 4.2,8.46999 h 0.24 c 5.92,-0.38 13.36,-7.72999 22.09,-21.83999 a 187.39,187.39 0 0 0 19.95,-42.85 c 0.58,-2 1.41,-4.82 2.5,-8.56 1.09,-3.74 1.86,-6.34 2.31,-7.73 0.45,-1.39 1.2,-3.44 2.18,-5.87 a 19.1,19.1 0 0 1 2.94,-5.45 q 1.24,-1.4 3.39,-3.59 a 12,12 0 0 1 4.93,-3.19 66.52,66.52 0 0 1 14.42,-2.71 l 11.1,-0.71 a 1.05,1.05 0 0 1 0.71,1.88 l -0.22,0.17 c -5,3.85 -9.91,13.17 -14.53,27.7 -3.76,12.29 -7,23.67 -9.49,33.8 -2.49,10.13 -4.1,16.3 -4.66,18.46 -0.56,2.16 -1.92,7.64 -3.9,15.77 -1.5,6.15999 -2.81,11.30999 -3.91,15.39999 a 1,1 0 0 0 1.56,1.17 165.08,165.08 0 0 0 30,-23.17999 c 5.12,-5.14 43.8,-48.1 45.64,-20.77 z m -370.32,-123.57 c -3.92,0.25 -10.77,6.17 -21.22,33 -7.23,18.55 -14.24,39.63 -20.9,62.8 a 1.06,1.06 0 0 0 1.89,0.87 c 18,-27.45 30.47,-50.4 37.09,-68.31 4.08,-12.25 6,-20.3 5.81,-23.9 -0.28,-4.44 -1.95,-4.44 -2.49,-4.44 z m 259.7,188.48999 a 1.05,1.05 0 0 0 -1.22,-1.37 c -5.38,1.14 -10.82,2 -16.13,3.31 -7.53,1.79 -18.92,3.64 -24.74,9.87 a 1.13,1.13 0 0 0 -0.2,0.3 c -1,2.17 -1.24,5.7 -1,10.09 0.2,3.1 3.21,5.95 5.8,8.08 a 11.71,11.71 0 0 0 8.54,2.49 c 11.85,-0.76 21.54,-11.79 28.95,-32.77 z m -178.83,-128.73999 h 0.09 c 6.35,-0.33 14.31,-2.68 16.18,-12.22 0.88,-4.29 -1.7,-9.21 -3.33,-10.64 -1.63,-1.43 -3.82,-2 -6.67,-1.81 -2.85,0.19 -6.38,2 -9.7,5.08 -4.38,4.08 -4.25,10 -2.81,13.89 1.3,3.42 3.69,5.61 6.24,5.7 z"
     id="path44"
     inkscape:connector-curvature="0"
     style="opacity:0.9;fill:#428bca;fill-opacity:1" />
</svg>
